<svg id="visual" viewBox="0 0 900 600" width="900" height="600" xmlns="http://www.w3.org/2000/svg" xmlns:xlink="http://www.w3.org/1999/xlink" version="1.1"><rect x="0" y="0" width="900" height="600" fill="#f5f5f5"></rect><path d="M0 470L21.5 458.3C43 446.7 86 423.3 128.8 428.8C171.7 434.3 214.3 468.7 257.2 489.3C300 510 343 517 385.8 507.2C428.7 497.3 471.3 470.7 514.2 451.3C557 432 600 420 642.8 410.3C685.7 400.7 728.3 393.3 771.2 391C814 388.7 857 391.3 878.5 392.7L900 394L900 601L878.5 601C857 601 814 601 771.2 601C728.3 601 685.7 601 642.8 601C600 601 557 601 514.2 601C471.3 601 428.7 601 385.8 601C343 601 300 601 257.2 601C214.3 601 171.7 601 128.8 601C86 601 43 601 21.5 601L0 601Z" fill="#0066FF" stroke-linecap="round" stroke-linejoin="miter"></path></svg>