<svg id="visual" viewBox="0 0 900 600" width="900" height="600" xmlns="http://www.w3.org/2000/svg" xmlns:xlink="http://www.w3.org/1999/xlink" version="1.1"><path d="M0 247L21.5 230C43 213 86 179 128.8 165C171.7 151 214.3 157 257.2 180C300 203 343 243 385.8 249C428.7 255 471.3 227 514.2 216C557 205 600 211 642.8 216C685.7 221 728.3 225 771.2 220C814 215 857 201 878.5 194L900 187L900 0L878.5 0C857 0 814 0 771.2 0C728.3 0 685.7 0 642.8 0C600 0 557 0 514.2 0C471.3 0 428.7 0 385.8 0C343 0 300 0 257.2 0C214.3 0 171.7 0 128.8 0C86 0 43 0 21.5 0L0 0Z" fill="#6395f2"></path><path d="M0 343L21.5 344C43 345 86 347 128.8 353C171.7 359 214.3 369 257.2 373C300 377 343 375 385.8 378C428.7 381 471.3 389 514.2 377C557 365 600 333 642.8 325C685.7 317 728.3 333 771.2 338C814 343 857 337 878.5 334L900 331L900 185L878.5 192C857 199 814 213 771.2 218C728.3 223 685.7 219 642.8 214C600 209 557 203 514.2 214C471.3 225 428.7 253 385.8 247C343 241 300 201 257.2 178C214.3 155 171.7 149 128.8 163C86 177 43 211 21.5 228L0 245Z" fill="#1367e6"></path><path d="M0 601L21.5 601C43 601 86 601 128.8 601C171.7 601 214.3 601 257.2 601C300 601 343 601 385.8 601C428.7 601 471.3 601 514.2 601C557 601 600 601 642.8 601C685.7 601 728.3 601 771.2 601C814 601 857 601 878.5 601L900 601L900 329L878.5 332C857 335 814 341 771.2 336C728.3 331 685.7 315 642.8 323C600 331 557 363 514.2 375C471.3 387 428.7 379 385.8 376C343 373 300 375 257.2 371C214.3 367 171.7 357 128.8 351C86 345 43 343 21.5 342L0 341Z" fill="#004ca9"></path></svg>